<svg version="1.1" viewBox="0.0 0.0 552.0 342.0" fill="none" stroke="none" stroke-linecap="square" stroke-miterlimit="10" width="552" height="342" xmlns:xlink="http://www.w3.org/1999/xlink" xmlns="http://www.w3.org/2000/svg"><path fill="#ffffff" d="M0 0L552.0 0L552.0 342.0L0 342.0L0 0Z" fill-rule="nonzero"/><path stroke="#cccccc" stroke-width="1.0" stroke-linecap="butt" d="M89.5 266.5L534.5 266.5" fill-rule="nonzero"/><path stroke="#cccccc" stroke-width="1.0" stroke-linecap="butt" d="M89.5 217.5L534.5 217.5" fill-rule="nonzero"/><path stroke="#cccccc" stroke-width="1.0" stroke-linecap="butt" d="M89.5 188.5L534.5 188.5" fill-rule="nonzero"/><path stroke="#cccccc" stroke-width="1.0" stroke-linecap="butt" d="M89.5 167.5L534.5 167.5" fill-rule="nonzero"/><path stroke="#cccccc" stroke-width="1.0" stroke-linecap="butt" d="M89.5 152.5L534.5 152.5" fill-rule="nonzero"/><path stroke="#cccccc" stroke-width="1.0" stroke-linecap="butt" d="M89.5 138.5L534.5 138.5" fill-rule="nonzero"/><path stroke="#cccccc" stroke-width="1.0" stroke-linecap="butt" d="M89.5 127.5L534.5 127.5" fill-rule="nonzero"/><path stroke="#cccccc" stroke-width="1.0" stroke-linecap="butt" d="M89.5 118.5L534.5 118.5" fill-rule="nonzero"/><path stroke="#cccccc" stroke-width="1.0" stroke-linecap="butt" d="M89.5 110.5L534.5 110.5" fill-rule="nonzero"/><path stroke="#cccccc" stroke-width="1.0" stroke-linecap="butt" d="M89.5 102.5L534.5 102.5" fill-rule="nonzero"/><path stroke="#cccccc" stroke-width="1.0" stroke-linecap="butt" d="M89.5 53.5L534.5 53.5" fill-rule="nonzero"/><path stroke="#cccccc" stroke-width="1.0" stroke-linecap="butt" d="M89.5 24.5L534.5 24.5" fill-rule="nonzero"/><path stroke="#000000" stroke-width="1.0" stroke-linecap="butt" d="M534.5 266.5L89.5 266.5" fill-rule="nonzero"/><path stroke="#000000" stroke-width="1.0" stroke-linecap="butt" d="M89.5 266.5L89.5 24.5" fill-rule="nonzero"/><clipPath id="id_0"><path d="M89.1 24.1L534.9 24.1L534.9 266.9L89.1 266.9L89.1 24.1Z" clip-rule="nonzero"/></clipPath><path stroke="#4285f4" stroke-width="2.0" stroke-linecap="butt" clip-path="url(#id_0)" d="M178.92537 29.960253L178.92537 34.01347" fill-rule="nonzero"/><path stroke="#4285f4" stroke-width="2.0" stroke-linecap="butt" clip-path="url(#id_0)" d="M178.92537 42.4021L178.92537 35.512627" fill-rule="nonzero"/><path stroke="#4285f4" stroke-width="2.0" stroke-linecap="butt" clip-path="url(#id_0)" d="M135.67612 34.01347L222.17462 34.01347" fill-rule="nonzero"/><path stroke="#4285f4" stroke-width="2.0" stroke-linecap="butt" clip-path="url(#id_0)" d="M135.67612 35.512627L135.67612 34.01347" fill-rule="nonzero"/><path stroke="#4285f4" stroke-width="2.0" stroke-linecap="butt" clip-path="url(#id_0)" d="M222.17462 34.01347L222.17462 35.512627" fill-rule="nonzero"/><path stroke="#4285f4" stroke-width="2.0" stroke-linecap="butt" clip-path="url(#id_0)" d="M222.17462 35.512627L135.67612 35.512627" fill-rule="nonzero"/><path stroke="#4285f4" stroke-width="2.0" stroke-linecap="butt" clip-path="url(#id_0)" d="M312.0 134.69214L312.0 143.79085" fill-rule="nonzero"/><path stroke="#4285f4" stroke-width="2.0" stroke-linecap="butt" clip-path="url(#id_0)" d="M312.0 157.68484L312.0 144.50583" fill-rule="nonzero"/><path stroke="#4285f4" stroke-width="2.0" stroke-linecap="butt" clip-path="url(#id_0)" d="M268.75073 143.79085L355.24927 143.79085" fill-rule="nonzero"/><path stroke="#4285f4" stroke-width="2.0" stroke-linecap="butt" clip-path="url(#id_0)" d="M268.75073 144.50583L268.75073 143.79085" fill-rule="nonzero"/><path stroke="#4285f4" stroke-width="2.0" stroke-linecap="butt" clip-path="url(#id_0)" d="M355.24927 143.79085L355.24927 144.50583" fill-rule="nonzero"/><path stroke="#4285f4" stroke-width="2.0" stroke-linecap="butt" clip-path="url(#id_0)" d="M355.24927 144.50583L268.75073 144.50583" fill-rule="nonzero"/><path stroke="#4285f4" stroke-width="2.0" stroke-linecap="butt" clip-path="url(#id_0)" d="M445.07462 149.37193L445.07462 165.30176" fill-rule="nonzero"/><path stroke="#4285f4" stroke-width="2.0" stroke-linecap="butt" clip-path="url(#id_0)" d="M445.07462 170.17789L445.07462 162.41776" fill-rule="nonzero"/><path fill="#4285f4" clip-path="url(#id_0)" d="M400.82538 161.41776L489.32388 161.41776L489.32388 166.30176L400.82538 166.30176L400.82538 161.41776Z" fill-rule="nonzero"/><path stroke="#000000" stroke-width="1.0" stroke-linecap="butt" d="M178.5 272.5L178.5 260.5" fill-rule="nonzero"/><path stroke="#000000" stroke-width="1.0" stroke-linecap="butt" d="M312.5 272.5L312.5 260.5" fill-rule="nonzero"/><path stroke="#000000" stroke-width="1.0" stroke-linecap="butt" d="M445.5 272.5L445.5 260.5" fill-rule="nonzero"/><path stroke="#000000" stroke-width="1.0" stroke-linecap="butt" d="M83.5 266.5L95.5 266.5" fill-rule="nonzero"/><path stroke="#000000" stroke-width="1.0" stroke-linecap="butt" d="M83.5 217.5L95.5 217.5" fill-rule="nonzero"/><path stroke="#000000" stroke-width="1.0" stroke-linecap="butt" d="M83.5 188.5L95.5 188.5" fill-rule="nonzero"/><path stroke="#000000" stroke-width="1.0" stroke-linecap="butt" d="M83.5 167.5L95.5 167.5" fill-rule="nonzero"/><path stroke="#000000" stroke-width="1.0" stroke-linecap="butt" d="M83.5 152.5L95.5 152.5" fill-rule="nonzero"/><path stroke="#000000" stroke-width="1.0" stroke-linecap="butt" d="M83.5 138.5L95.5 138.5" fill-rule="nonzero"/><path stroke="#000000" stroke-width="1.0" stroke-linecap="butt" d="M83.5 127.5L95.5 127.5" fill-rule="nonzero"/><path stroke="#000000" stroke-width="1.0" stroke-linecap="butt" d="M83.5 118.5L95.5 118.5" fill-rule="nonzero"/><path stroke="#000000" stroke-width="1.0" stroke-linecap="butt" d="M83.5 110.5L95.5 110.5" fill-rule="nonzero"/><path stroke="#000000" stroke-width="1.0" stroke-linecap="butt" d="M83.5 102.5L95.5 102.5" fill-rule="nonzero"/><path stroke="#000000" stroke-width="1.0" stroke-linecap="butt" d="M83.5 53.5L95.5 53.5" fill-rule="nonzero"/><path stroke="#000000" stroke-width="1.0" stroke-linecap="butt" d="M83.5 24.5L95.5 24.5" fill-rule="nonzero"/><path fill="#000000" d="M293.15625 316.32187L293.15625 316.16562Q293.15625 315.97812 293.21875 315.9Q293.29688 315.82187 293.40625 315.82187Q293.51562 315.82187 293.57812 315.9Q293.65625 315.97812 293.65625 316.16562L293.65625 317.275Q293.64062 317.44687 293.57812 317.525Q293.51562 317.60312 293.40625 317.60312Q293.29688 317.60312 293.23438 317.54062Q293.17188 317.47812 293.15625 317.30624Q293.125 316.9 292.60938 316.525Q292.09375 316.15 291.23438 316.15Q290.125 316.15 289.5625 316.8375Q289.0 317.525 289.0 318.4Q289.0 319.35312 289.625 319.97812Q290.25 320.60312 291.25 320.60312Q291.8125 320.60312 292.40625 320.4Q293.01562 320.18124 293.48438 319.7125Q293.60938 319.5875 293.70312 319.5875Q293.8125 319.5875 293.875 319.66562Q293.9375 319.72812 293.9375 319.82187Q293.9375 320.07187 293.34375 320.4625Q292.39062 321.0875 291.21875 321.0875Q290.03125 321.0875 289.26562 320.3375Q288.5 319.57187 288.5 318.41562Q288.5 317.2125 289.28125 316.43124Q290.0625 315.65 291.25 315.65Q292.39062 315.65 293.15625 316.32187ZM300.85938 318.36874Q300.85938 319.49374 300.04688 320.29062Q299.23438 321.0875 298.10938 321.0875Q296.95312 321.0875 296.14062 320.29062Q295.34375 319.49374 295.34375 318.36874Q295.34375 317.24374 296.14062 316.44687Q296.95312 315.65 298.10938 315.65Q299.23438 315.65 300.04688 316.44687Q300.85938 317.24374 300.85938 318.36874ZM300.35938 318.36874Q300.35938 317.44687 299.6875 316.80624Q299.03125 316.15 298.09375 316.15Q297.15625 316.15 296.5 316.80624Q295.84375 317.44687 295.84375 318.36874Q295.84375 319.29062 296.5 319.94687Q297.15625 320.60312 298.09375 320.60312Q299.03125 320.60312 299.6875 319.94687Q300.35938 319.29062 300.35938 318.36874ZM302.85938 315.82187L302.85938 316.32187Q303.48438 315.65 304.125 315.65Q304.5 315.65 304.78125 315.85312Q305.07812 316.05624 305.26562 316.4625Q305.59375 316.05624 305.92188 315.85312Q306.26562 315.65 306.60938 315.65Q307.14062 315.65 307.45312 315.99374Q307.875 316.44687 307.875 316.9625L307.875 320.4L308.29688 320.4Q308.46875 320.4 308.54688 320.47812Q308.625 320.54062 308.625 320.65Q308.625 320.75937 308.54688 320.8375Q308.46875 320.9 308.29688 320.9L307.39062 320.9L307.39062 317.00937Q307.39062 316.63437 307.15625 316.4Q306.92188 316.15 306.625 316.15Q306.35938 316.15 306.0625 316.35312Q305.76562 316.55624 305.375 317.15L305.375 320.4L305.79688 320.4Q305.96875 320.4 306.04688 320.47812Q306.125 320.54062 306.125 320.65Q306.125 320.75937 306.04688 320.8375Q305.96875 320.9 305.79688 320.9L304.875 320.9L304.875 317.05624Q304.875 316.65 304.64062 316.4Q304.42188 316.15 304.125 316.15Q303.875 316.15 303.60938 316.32187Q303.25 316.55624 302.85938 317.15L302.85938 320.4L303.28125 320.4Q303.45312 320.4 303.53125 320.47812Q303.60938 320.54062 303.60938 320.65Q303.60938 320.75937 303.53125 320.8375Q303.45312 320.9 303.28125 320.9L301.95312 320.9Q301.78125 320.9 301.70312 320.8375Q301.625 320.75937 301.625 320.65Q301.625 320.54062 301.70312 320.47812Q301.78125 320.4 301.95312 320.4L302.375 320.4L302.375 316.32187L301.95312 316.32187Q301.78125 316.32187 301.70312 316.25937Q301.625 316.18124 301.625 316.07187Q301.625 315.9625 301.70312 315.9Q301.78125 315.82187 301.95312 315.82187L302.85938 315.82187ZM309.85938 315.82187L309.85938 316.32187Q310.48438 315.65 311.125 315.65Q311.5 315.65 311.78125 315.85312Q312.07812 316.05624 312.26562 316.4625Q312.59375 316.05624 312.92188 315.85312Q313.26562 315.65 313.60938 315.65Q314.14062 315.65 314.45312 315.99374Q314.875 316.44687 314.875 316.9625L314.875 320.4L315.29688 320.4Q315.46875 320.4 315.54688 320.47812Q315.625 320.54062 315.625 320.65Q315.625 320.75937 315.54688 320.8375Q315.46875 320.9 315.29688 320.9L314.39062 320.9L314.39062 317.00937Q314.39062 316.63437 314.15625 316.4Q313.92188 316.15 313.625 316.15Q313.35938 316.15 313.0625 316.35312Q312.76562 316.55624 312.375 317.15L312.375 320.4L312.79688 320.4Q312.96875 320.4 313.04688 320.47812Q313.125 320.54062 313.125 320.65Q313.125 320.75937 313.04688 320.8375Q312.96875 320.9 312.79688 320.9L311.875 320.9L311.875 317.05624Q311.875 316.65 311.64062 316.4Q311.42188 316.15 311.125 316.15Q310.875 316.15 310.60938 316.32187Q310.25 316.55624 309.85938 317.15L309.85938 320.4L310.28125 320.4Q310.45312 320.4 310.53125 320.47812Q310.60938 320.54062 310.60938 320.65Q310.60938 320.75937 310.53125 320.8375Q310.45312 320.9 310.28125 320.9L308.95312 320.9Q308.78125 320.9 308.70312 320.8375Q308.625 320.75937 308.625 320.65Q308.625 320.54062 308.70312 320.47812Q308.78125 320.4 308.95312 320.4L309.375 320.4L309.375 316.32187L308.95312 316.32187Q308.78125 316.32187 308.70312 316.25937Q308.625 316.18124 308.625 316.07187Q308.625 315.9625 308.70312 315.9Q308.78125 315.82187 308.95312 315.82187L309.85938 315.82187ZM320.51562 320.9L320.51562 320.19687Q319.4375 321.0875 318.21875 321.0875Q317.34375 321.0875 316.84375 320.65Q316.34375 320.19687 316.34375 319.54062Q316.34375 318.8375 317.0 318.30624Q317.65625 317.75937 318.92188 317.75937Q319.25 317.75937 319.64062 317.80624Q320.04688 317.85312 320.51562 317.94687L320.51562 317.15Q320.51562 316.74374 320.14062 316.44687Q319.76562 316.15 319.01562 316.15Q318.4375 316.15 317.40625 316.47812Q317.21875 316.54062 317.17188 316.54062Q317.07812 316.54062 317.0 316.47812Q316.9375 316.4 316.9375 316.29062Q316.9375 316.19687 317.0 316.13437Q317.07812 316.04062 317.65625 315.9Q318.57812 315.65 319.04688 315.65Q319.96875 315.65 320.48438 316.11874Q321.01562 316.57187 321.01562 317.15L321.01562 320.4L321.67188 320.4Q321.85938 320.4 321.92188 320.47812Q322.0 320.54062 322.0 320.65Q322.0 320.75937 321.92188 320.8375Q321.85938 320.9 321.67188 320.9L320.51562 320.9ZM320.51562 318.44687Q320.17188 318.35312 319.78125 318.30624Q319.39062 318.25937 318.96875 318.25937Q317.89062 318.25937 317.29688 318.7125Q316.84375 319.07187 316.84375 319.54062Q316.84375 319.99374 317.1875 320.30624Q317.53125 320.60312 318.20312 320.60312Q318.84375 320.60312 319.39062 320.35312Q319.9375 320.0875 320.51562 319.54062L320.51562 318.44687ZM324.51562 315.82187L324.51562 316.57187Q325.03125 316.04062 325.4375 315.85312Q325.85938 315.65 326.375 315.65Q326.9375 315.65 327.40625 315.88437Q327.73438 316.07187 328.0 316.47812Q328.26562 316.88437 328.26562 317.30624L328.26562 320.4L328.6875 320.4Q328.85938 320.4 328.9375 320.47812Q329.01562 320.54062 329.01562 320.65Q329.01562 320.75937 328.9375 320.8375Q328.85938 320.9 328.6875 320.9L327.35938 320.9Q327.1875 320.9 327.10938 320.8375Q327.03125 320.75937 327.03125 320.65Q327.03125 320.54062 327.10938 320.47812Q327.1875 320.4 327.35938 320.4L327.78125 320.4L327.78125 317.38437Q327.78125 316.86874 327.39062 316.50937Q327.01562 316.15 326.375 316.15Q325.89062 316.15 325.53125 316.35312Q325.17188 316.54062 324.51562 317.32187L324.51562 320.4L325.0625 320.4Q325.25 320.4 325.3125 320.47812Q325.39062 320.54062 325.39062 320.65Q325.39062 320.75937 325.3125 320.8375Q325.25 320.9 325.0625 320.9L323.46875 320.9Q323.28125 320.9 323.20312 320.8375Q323.14062 320.75937 323.14062 320.65Q323.14062 320.54062 323.20312 320.47812Q323.28125 320.4 323.46875 320.4L324.01562 320.4L324.01562 316.32187L323.60938 316.32187Q323.42188 316.32187 323.34375 316.25937Q323.28125 316.18124 323.28125 316.07187Q323.28125 315.9625 323.34375 315.9Q323.42188 315.82187 323.60938 315.82187L324.51562 315.82187ZM335.51562 313.54062L335.51562 320.4L336.17188 320.4Q336.34375 320.4 336.42188 320.47812Q336.5 320.54062 336.5 320.65Q336.5 320.75937 336.42188 320.8375Q336.34375 320.9 336.17188 320.9L335.01562 320.9L335.01562 319.91562Q334.15625 321.0875 332.84375 321.0875Q332.17188 321.0875 331.5625 320.74374Q330.95312 320.38437 330.59375 319.72812Q330.23438 319.07187 330.23438 318.36874Q330.23438 317.66562 330.59375 317.025Q330.95312 316.36874 331.5625 316.00937Q332.17188 315.65 332.84375 315.65Q334.14062 315.65 335.01562 316.82187L335.01562 314.04062L334.35938 314.04062Q334.17188 314.04062 334.09375 313.97812Q334.03125 313.9 334.03125 313.79062Q334.03125 313.68124 334.09375 313.61874Q334.17188 313.54062 334.35938 313.54062L335.51562 313.54062ZM335.01562 318.36874Q335.01562 317.43124 334.375 316.79062Q333.75 316.15 332.875 316.15Q332.0 316.15 331.35938 316.79062Q330.73438 317.43124 330.73438 318.36874Q330.73438 319.30624 331.35938 319.9625Q332.0 320.60312 332.875 320.60312Q333.75 320.60312 334.375 319.9625Q335.01562 319.30624 335.01562 318.36874Z" fill-rule="nonzero"/><path fill="#000000" d="M19.64687 189.65625L26.599995 189.65625L26.599995 187.96875Q26.599995 187.79688 26.67812 187.71875Q26.74062 187.64062 26.849995 187.64062Q26.95937 187.64062 27.037495 187.71875Q27.099995 187.79688 27.099995 187.96875L27.099995 191.82812Q27.099995 192.01562 27.037495 192.09375Q26.95937 192.15625 26.849995 192.15625Q26.74062 192.15625 26.67812 192.09375Q26.599995 192.01562 26.599995 191.82812L26.599995 190.14062L20.318745 190.14062L20.83437 191.75Q20.86562 191.875 20.86562 191.92188Q20.86562 192.01562 20.80312 192.09375Q20.724995 192.15625 20.61562 192.15625Q20.537495 192.15625 20.45937 192.09375Q20.412495 192.04688 20.349995 191.90625L19.64687 189.65625ZM22.818745 180.64062L24.037495 180.64062Q25.61562 180.64062 26.55312 181.39062Q27.27187 181.98438 27.27187 182.89062Q27.27187 183.32812 27.099995 183.71875Q26.92812 184.09375 26.61562 184.35938Q26.42812 184.53125 26.006245 184.73438Q25.568745 184.9375 25.20937 185.01562Q24.70937 185.15625 24.037495 185.15625L22.818745 185.15625Q21.224995 185.15625 20.30312 184.40625Q19.568745 183.8125 19.568745 182.90625Q19.568745 182.46875 19.74062 182.09375Q19.912495 181.70312 20.224995 181.4375Q20.42812 181.26562 20.86562 181.0625Q21.287495 180.85938 21.631245 180.76562Q22.131245 180.64062 22.818745 180.64062ZM22.881245 181.125Q22.17812 181.125 21.58437 181.32812Q20.974995 181.53125 20.631245 181.76562Q20.412495 181.92188 20.27187 182.15625Q20.068745 182.48438 20.068745 182.90625Q20.068745 183.73438 20.912495 184.20312Q21.756245 184.67188 22.881245 184.67188L23.95937 184.67188Q24.662495 184.67188 25.27187 184.46875Q25.86562 184.26562 26.224995 184.01562Q26.42812 183.875 26.568745 183.64062Q26.787495 183.3125 26.787495 182.89062Q26.787495 182.0625 25.943745 181.59375Q25.08437 181.125 23.95937 181.125L22.881245 181.125ZM22.02187 169.48438L23.27187 169.48438Q22.39687 168.53125 22.14687 168.0625Q21.89687 167.57812 21.89687 167.17188Q21.89687 166.73438 22.193745 166.35938Q22.49062 165.96875 22.64687 165.96875Q22.756245 165.96875 22.83437 166.04688Q22.89687 166.125 22.89687 166.23438Q22.89687 166.28125 22.881245 166.32812Q22.86562 166.375 22.756245 166.48438Q22.55312 166.6875 22.474995 166.84375Q22.39687 166.98438 22.39687 167.14062Q22.39687 167.45312 22.662495 167.92188Q22.912495 168.375 23.912495 169.48438L26.599995 169.48438L26.599995 167.3125Q26.599995 167.125 26.67812 167.04688Q26.74062 166.96875 26.849995 166.96875Q26.95937 166.96875 27.037495 167.04688Q27.099995 167.125 27.099995 167.3125L27.099995 171.17188Q27.099995 171.34375 27.037495 171.42188Q26.95937 171.5 26.86562 171.5Q26.756245 171.5 26.693745 171.42188Q26.631245 171.34375 26.631245 171.17188L26.631245 169.98438L22.52187 169.98438L22.52187 170.89062Q22.52187 171.0625 22.45937 171.14062Q22.381245 171.21875 22.27187 171.21875Q22.162495 171.21875 22.099995 171.14062Q22.02187 171.0625 22.02187 170.89062L22.02187 169.48438ZM27.099995 160.21875L26.381245 160.21875Q27.287495 161.21875 27.287495 162.39062Q27.287495 163.10938 26.89687 163.48438Q26.381245 163.96875 25.693745 163.96875L22.52187 163.96875L22.52187 164.64062Q22.52187 164.8125 22.45937 164.89062Q22.381245 164.96875 22.27187 164.96875Q22.162495 164.96875 22.099995 164.89062Q22.02187 164.8125 22.02187 164.64062L22.02187 163.48438L25.693745 163.48438Q26.17812 163.48438 26.49062 163.1875Q26.80312 162.875 26.80312 162.42188Q26.80312 161.21875 25.693745 160.21875L22.52187 160.21875L22.52187 161.125Q22.52187 161.29688 22.45937 161.375Q22.381245 161.45312 22.27187 161.45312Q22.162495 161.45312 22.099995 161.375Q22.02187 161.29688 22.02187 161.125L22.02187 159.71875L26.599995 159.71875L26.599995 159.3125Q26.599995 159.125 26.67812 159.0625Q26.74062 158.98438 26.849995 158.98438Q26.95937 158.98438 27.037495 159.0625Q27.099995 159.125 27.099995 159.3125L27.099995 160.21875ZM22.02187 156.48438L22.77187 156.48438Q22.24062 155.96875 22.05312 155.5625Q21.849995 155.14062 21.849995 154.625Q21.849995 154.0625 22.08437 153.59375Q22.27187 153.26562 22.67812 153.0Q23.08437 152.73438 23.506245 152.73438L26.599995 152.73438L26.599995 152.3125Q26.599995 152.14062 26.67812 152.0625Q26.74062 151.98438 26.849995 151.98438Q26.95937 151.98438 27.037495 152.0625Q27.099995 152.14062 27.099995 152.3125L27.099995 153.64062Q27.099995 153.8125 27.037495 153.89062Q26.95937 153.96875 26.849995 153.96875Q26.74062 153.96875 26.67812 153.89062Q26.599995 153.8125 26.599995 153.64062L26.599995 153.21875L23.58437 153.21875Q23.068745 153.21875 22.70937 153.60938Q22.349995 153.98438 22.349995 154.625Q22.349995 155.10938 22.55312 155.46875Q22.74062 155.82812 23.52187 156.48438L26.599995 156.48438L26.599995 155.9375Q26.599995 155.75 26.67812 155.6875Q26.74062 155.60938 26.849995 155.60938Q26.95937 155.60938 27.037495 155.6875Q27.099995 155.75 27.099995 155.9375L27.099995 157.53125Q27.099995 157.71875 27.037495 157.79688Q26.95937 157.85938 26.849995 157.85938Q26.74062 157.85938 26.67812 157.79688Q26.599995 157.71875 26.599995 157.53125L26.599995 156.98438L22.52187 156.98438L22.52187 157.39062Q22.52187 157.57812 22.45937 157.65625Q22.381245 157.71875 22.27187 157.71875Q22.162495 157.71875 22.099995 157.65625Q22.02187 157.57812 22.02187 157.39062L22.02187 156.48438ZM22.349995 146.26562Q22.17812 146.26562 22.099995 146.20312Q22.02187 146.125 22.02187 146.03125Q22.02187 145.92188 22.099995 145.85938Q22.17812 145.78125 22.36562 145.78125L23.20937 145.78125Q23.381245 145.78125 23.45937 145.85938Q23.537495 145.92188 23.537495 146.03125Q23.537495 146.125 23.474995 146.20312Q23.39687 146.26562 23.256245 146.26562Q22.89687 146.3125 22.67812 146.64062Q22.349995 147.10938 22.349995 147.90625Q22.349995 148.73438 22.67812 149.1875Q22.92812 149.53125 23.24062 149.53125Q23.599995 149.53125 23.83437 149.125Q23.99062 148.84375 24.08437 148.0625Q24.193745 147.03125 24.33437 146.64062Q24.537495 146.0625 24.912495 145.79688Q25.27187 145.51562 25.693745 145.51562Q26.318745 145.51562 26.80312 146.125Q27.287495 146.71875 27.287495 147.89062Q27.287495 149.04688 26.693745 149.79688Q26.89687 149.79688 26.95937 149.82812Q27.02187 149.84375 27.068745 149.90625Q27.099995 149.96875 27.099995 150.04688Q27.099995 150.14062 27.02187 150.21875Q26.943745 150.28125 26.77187 150.28125L25.756245 150.28125Q25.58437 150.28125 25.506245 150.21875Q25.42812 150.15625 25.42812 150.04688Q25.42812 149.9375 25.506245 149.85938Q25.568745 149.78125 25.693745 149.78125Q25.974995 149.78125 26.14687 149.65625Q26.42812 149.45312 26.61562 149.0Q26.80312 148.54688 26.80312 147.90625Q26.80312 146.9375 26.443745 146.46875Q26.08437 146.0 25.693745 146.0Q25.224995 146.0 24.95937 146.48438Q24.67812 146.95312 24.58437 147.875Q24.49062 148.79688 24.349995 149.20312Q24.193745 149.59375 23.89687 149.8125Q23.58437 150.03125 23.224995 150.03125Q22.599995 150.03125 22.224995 149.42188Q21.849995 148.79688 21.849995 147.9375Q21.849995 146.90625 22.349995 146.26562ZM24.17812 133.95312Q23.506245 133.95312 22.756245 133.78125Q21.99062 133.60938 21.006245 133.10938Q20.02187 132.60938 19.80312 132.375Q19.74062 132.3125 19.74062 132.21875Q19.74062 132.125 19.818745 132.04688Q19.881245 131.96875 19.99062 131.96875Q20.037495 131.96875 20.11562 132.01562Q21.30312 132.65625 22.27187 132.9375Q23.224995 133.20312 24.17812 133.20312Q25.14687 133.20312 26.11562 132.9375Q27.068745 132.65625 28.256245 132.01562Q28.318745 131.96875 28.381245 131.96875Q28.474995 131.96875 28.55312 132.04688Q28.631245 132.125 28.631245 132.21875Q28.631245 132.3125 28.55312 132.375Q28.36562 132.59375 27.39687 133.09375Q26.42812 133.57812 25.693745 133.76562Q24.943745 133.95312 24.17812 133.95312ZM22.349995 125.265625Q22.17812 125.265625 22.099995 125.203125Q22.02187 125.125 22.02187 125.03125Q22.02187 124.921875 22.099995 124.859375Q22.17812 124.78125 22.36562 124.78125L23.20937 124.78125Q23.381245 124.78125 23.45937 124.859375Q23.537495 124.921875 23.537495 125.03125Q23.537495 125.125 23.474995 125.203125Q23.39687 125.265625 23.256245 125.265625Q22.89687 125.3125 22.67812 125.640625Q22.349995 126.109375 22.349995 126.90625Q22.349995 127.734375 22.67812 128.1875Q22.92812 128.53125 23.24062 128.53125Q23.599995 128.53125 23.83437 128.125Q23.99062 127.84375 24.08437 127.0625Q24.193745 126.03125 24.33437 125.640625Q24.537495 125.0625 24.912495 124.796875Q25.27187 124.515625 25.693745 124.515625Q26.318745 124.515625 26.80312 125.125Q27.287495 125.71875 27.287495 126.890625Q27.287495 128.04688 26.693745 128.79688Q26.89687 128.79688 26.95937 128.82812Q27.02187 128.84375 27.068745 128.90625Q27.099995 128.96875 27.099995 129.04688Q27.099995 129.14062 27.02187 129.21875Q26.943745 129.28125 26.77187 129.28125L25.756245 129.28125Q25.58437 129.28125 25.506245 129.21875Q25.42812 129.15625 25.42812 129.04688Q25.42812 128.9375 25.506245 128.85938Q25.568745 128.78125 25.693745 128.78125Q25.974995 128.78125 26.14687 128.65625Q26.42812 128.45312 26.61562 128.0Q26.80312 127.546875 26.80312 126.90625Q26.80312 125.9375 26.443745 125.46875Q26.08437 125.0 25.693745 125.0Q25.224995 125.0 24.95937 125.484375Q24.67812 125.953125 24.58437 126.875Q24.49062 127.796875 24.349995 128.20312Q24.193745 128.59375 23.89687 128.8125Q23.58437 129.03125 23.224995 129.03125Q22.599995 129.03125 22.224995 128.42188Q21.849995 127.796875 21.849995 126.9375Q21.849995 125.90625 22.349995 125.265625ZM24.193745 119.75Q24.86562 119.75 25.61562 119.9375Q26.36562 120.109375 27.349995 120.609375Q28.349995 121.109375 28.55312 121.328125Q28.631245 121.40625 28.631245 121.484375Q28.631245 121.59375 28.55312 121.671875Q28.474995 121.734375 28.381245 121.734375Q28.318745 121.734375 28.256245 121.6875Q27.068745 121.046875 26.11562 120.78125Q25.14687 120.5 24.193745 120.5Q23.224995 120.5 22.27187 120.78125Q21.30312 121.046875 20.11562 121.6875Q20.037495 121.734375 19.99062 121.734375Q19.881245 121.734375 19.818745 121.671875Q19.74062 121.59375 19.74062 121.484375Q19.74062 121.40625 19.80312 121.328125Q20.006245 121.109375 20.974995 120.625Q21.943745 120.125 22.693745 119.9375Q23.42812 119.75 24.193745 119.75Z" fill-rule="nonzero"/><path fill="#000000" d="M59.94375 262.44687L59.94375 269.4L61.63125 269.4Q61.803123 269.4 61.88125 269.47812Q61.959373 269.54062 61.959373 269.65Q61.959373 269.75937 61.88125 269.8375Q61.803123 269.9 61.63125 269.9L57.771873 269.9Q57.584373 269.9 57.50625 269.8375Q57.44375 269.75937 57.44375 269.65Q57.44375 269.54062 57.50625 269.47812Q57.584373 269.4 57.771873 269.4L59.459373 269.4L59.459373 263.11874L57.85 263.63437Q57.725 263.66562 57.678123 263.66562Q57.584373 263.66562 57.50625 263.60312Q57.44375 263.525 57.44375 263.41562Q57.44375 263.3375 57.50625 263.25937Q57.553123 263.2125 57.69375 263.15L59.94375 262.44687ZM66.6 268.49374L66.80312 268.49374Q67.13125 268.49374 67.36562 268.72812Q67.6 268.94687 67.6 269.275Q67.6 269.61874 67.36562 269.85312Q67.13125 270.07187 66.80312 270.07187L66.6 270.07187Q66.27187 270.07187 66.0375 269.85312Q65.80312 269.61874 65.80312 269.29062Q65.80312 268.94687 66.0375 268.72812Q66.27187 268.49374 66.6 268.49374ZM75.95937 265.61874L75.95937 266.8375Q75.95937 268.41562 75.20937 269.35312Q74.61562 270.07187 73.70937 270.07187Q73.27187 270.07187 72.88125 269.9Q72.50625 269.72812 72.24062 269.41562Q72.06875 269.22812 71.86562 268.80624Q71.6625 268.36874 71.58437 268.00937Q71.44375 267.50937 71.44375 266.8375L71.44375 265.61874Q71.44375 264.025 72.19375 263.10312Q72.7875 262.36874 73.69375 262.36874Q74.13125 262.36874 74.50625 262.54062Q74.89687 262.7125 75.1625 263.025Q75.33437 263.22812 75.5375 263.66562Q75.74062 264.0875 75.83437 264.43124Q75.95937 264.93124 75.95937 265.61874ZM75.475 265.68124Q75.475 264.97812 75.27187 264.38437Q75.06875 263.775 74.83437 263.43124Q74.67812 263.2125 74.44375 263.07187Q74.11562 262.86874 73.69375 262.86874Q72.86562 262.86874 72.39687 263.7125Q71.92812 264.55624 71.92812 265.68124L71.92812 266.75937Q71.92812 267.4625 72.13125 268.07187Q72.33437 268.66562 72.58437 269.025Q72.725 269.22812 72.95937 269.36874Q73.2875 269.5875 73.70937 269.5875Q74.5375 269.5875 75.00625 268.74374Q75.475 267.88437 75.475 266.75937L75.475 265.68124Z" fill-rule="nonzero"/><path fill="#000000" d="M57.584373 219.91856L61.365623 219.91856L61.365623 219.73106Q61.365623 219.55919 61.428123 219.48106Q61.50625 219.40294 61.615623 219.40294Q61.725 219.40294 61.7875 219.48106Q61.865623 219.55919 61.865623 219.73106L61.865623 220.41856L57.1 220.41856L57.1 219.68419Q58.6 218.34044 60.021873 216.94981Q60.678123 216.29356 60.928123 215.99669Q61.178123 215.68419 61.25625 215.46544Q61.35 215.23106 61.35 214.99669Q61.35 214.35606 60.834373 213.87169Q60.334373 213.38731 59.615623 213.38731Q58.975 213.38731 58.475 213.76231Q57.975 214.12169 57.834373 214.66856Q57.7875 214.80919 57.740623 214.85606Q57.678123 214.90294 57.584373 214.90294Q57.475 214.90294 57.4125 214.84044Q57.35 214.77794 57.35 214.68419Q57.35 214.40294 57.646873 213.91856Q57.959373 213.43419 58.490623 213.16856Q59.0375 212.88731 59.615623 212.88731Q60.5375 212.88731 61.19375 213.52794Q61.85 214.16856 61.85 214.98106Q61.85 215.30919 61.740623 215.60606Q61.63125 215.88731 61.365623 216.23106Q61.1 216.55919 60.4125 217.23106Q58.678123 218.94981 57.584373 219.88731L57.584373 219.91856ZM66.6 219.01231L66.80312 219.01231Q67.13125 219.01231 67.36562 219.24669Q67.6 219.46544 67.6 219.79356Q67.6 220.13731 67.36562 220.37169Q67.13125 220.59044 66.80312 220.59044L66.6 220.59044Q66.27187 220.59044 66.0375 220.37169Q65.80312 220.13731 65.80312 219.80919Q65.80312 219.46544 66.0375 219.24669Q66.27187 219.01231 66.6 219.01231ZM75.95937 216.13731L75.95937 217.35606Q75.95937 218.93419 75.20937 219.87169Q74.61562 220.59044 73.70937 220.59044Q73.27187 220.59044 72.88125 220.41856Q72.50625 220.24669 72.24062 219.93419Q72.06875 219.74669 71.86562 219.32481Q71.6625 218.88731 71.58437 218.52794Q71.44375 218.02794 71.44375 217.35606L71.44375 216.13731Q71.44375 214.54356 72.19375 213.62169Q72.7875 212.88731 73.69375 212.88731Q74.13125 212.88731 74.50625 213.05919Q74.89687 213.23106 75.1625 213.54356Q75.33437 213.74669 75.5375 214.18419Q75.74062 214.60606 75.83437 214.94981Q75.95937 215.44981 75.95937 216.13731ZM75.475 216.19981Q75.475 215.49669 75.27187 214.90294Q75.06875 214.29356 74.83437 213.94981Q74.67812 213.73106 74.44375 213.59044Q74.11562 213.38731 73.69375 213.38731Q72.86562 213.38731 72.39687 214.23106Q71.92812 215.07481 71.92812 216.19981L71.92812 217.27794Q71.92812 217.98106 72.13125 218.59044Q72.33437 219.18419 72.58437 219.54356Q72.725 219.74669 72.95937 219.88731Q73.2875 220.10606 73.70937 220.10606Q74.5375 220.10606 75.00625 219.26231Q75.475 218.40294 75.475 217.27794L75.475 216.19981Z" fill-rule="nonzero"/><path fill="#000000" d="M60.709373 187.47377Q61.396873 187.77065 61.740623 188.3019Q62.1 188.83315 62.1 189.41127Q62.1 190.3019 61.38125 190.97377Q60.678123 191.64565 59.6 191.64565Q58.959373 191.64565 58.271873 191.38002Q57.6 191.1144 57.334373 190.83315Q57.240623 190.7394 57.240623 190.63002Q57.240623 190.53627 57.303123 190.47377Q57.38125 190.39565 57.475 190.39565Q57.56875 190.39565 57.678123 190.4894Q58.584373 191.16127 59.6 191.16127Q60.459373 191.16127 61.0375 190.63002Q61.615623 190.08315 61.615623 189.4269Q61.615623 188.9894 61.334373 188.56752Q61.053123 188.14565 60.50625 187.91127Q59.975 187.66127 59.428123 187.66127Q59.25625 187.66127 59.178123 187.59877Q59.1 187.52065 59.1 187.41127Q59.1 187.3019 59.178123 187.2394Q59.25625 187.16127 59.396873 187.16127L59.81875 187.1769Q60.490623 187.1769 60.9125 186.77065Q61.35 186.3644 61.35 185.83315Q61.35 185.28627 60.896873 184.8644Q60.44375 184.44252 59.709373 184.44252Q59.209373 184.44252 58.771873 184.6144Q58.35 184.78627 58.1 185.09877Q58.00625 185.20815 57.94375 185.2394Q57.896873 185.25502 57.834373 185.25502Q57.740623 185.25502 57.6625 185.19252Q57.6 185.13002 57.6 185.03627Q57.6 184.8019 58.1 184.44252Q58.81875 183.94252 59.709373 183.94252Q60.646873 183.94252 61.240623 184.50502Q61.85 185.06752 61.85 185.83315Q61.85 186.33315 61.553123 186.77065Q61.271873 187.20815 60.709373 187.47377ZM66.6 190.06752L66.80312 190.06752Q67.13125 190.06752 67.36562 190.3019Q67.6 190.52065 67.6 190.84877Q67.6 191.19252 67.36562 191.4269Q67.13125 191.64565 66.80312 191.64565L66.6 191.64565Q66.27187 191.64565 66.0375 191.4269Q65.80312 191.19252 65.80312 190.8644Q65.80312 190.52065 66.0375 190.3019Q66.27187 190.06752 66.6 190.06752ZM75.95937 187.19252L75.95937 188.41127Q75.95937 189.9894 75.20937 190.9269Q74.61562 191.64565 73.70937 191.64565Q73.27187 191.64565 72.88125 191.47377Q72.50625 191.3019 72.24062 190.9894Q72.06875 190.8019 71.86562 190.38002Q71.6625 189.94252 71.58437 189.58315Q71.44375 189.08315 71.44375 188.41127L71.44375 187.19252Q71.44375 185.59877 72.19375 184.6769Q72.7875 183.94252 73.69375 183.94252Q74.13125 183.94252 74.50625 184.1144Q74.89687 184.28627 75.1625 184.59877Q75.33437 184.8019 75.5375 185.2394Q75.74062 185.66127 75.83437 186.00502Q75.95937 186.50502 75.95937 187.19252ZM75.475 187.25502Q75.475 186.5519 75.27187 185.95815Q75.06875 185.34877 74.83437 185.00502Q74.67812 184.78627 74.44375 184.64565Q74.11562 184.44252 73.69375 184.44252Q72.86562 184.44252 72.39687 185.28627Q71.92812 186.13002 71.92812 187.25502L71.92812 188.33315Q71.92812 189.03627 72.13125 189.64565Q72.33437 190.2394 72.58437 190.59877Q72.725 190.8019 72.95937 190.94252Q73.2875 191.16127 73.70937 191.16127Q74.5375 191.16127 75.00625 190.31752Q75.475 189.45815 75.475 188.33315L75.475 187.25502Z" fill-rule="nonzero"/><path fill="#000000" d="M60.615623 168.87462L57.35 168.87462L57.35 168.31212L60.084373 163.57774L61.115623 163.57774L61.115623 168.39024L61.521873 168.39024Q61.709373 168.39024 61.7875 168.45274Q61.865623 168.51524 61.865623 168.64024Q61.865623 168.734 61.7875 168.81212Q61.709373 168.87462 61.521873 168.87462L61.115623 168.87462L61.115623 170.43712L61.521873 170.43712Q61.709373 170.43712 61.7875 170.51524Q61.865623 170.57774 61.865623 170.68712Q61.865623 170.7965 61.7875 170.87462Q61.709373 170.93712 61.521873 170.93712L59.69375 170.93712Q59.521873 170.93712 59.44375 170.87462Q59.365623 170.7965 59.365623 170.68712Q59.365623 170.57774 59.44375 170.51524Q59.521873 170.43712 59.69375 170.43712L60.615623 170.43712L60.615623 168.87462ZM60.615623 168.39024L60.615623 164.07774L60.365623 164.07774L57.865623 168.39024L60.615623 168.39024ZM66.6 169.53087L66.80312 169.53087Q67.13125 169.53087 67.36562 169.76524Q67.6 169.984 67.6 170.31212Q67.6 170.65587 67.36562 170.89024Q67.13125 171.109 66.80312 171.109L66.6 171.109Q66.27187 171.109 66.0375 170.89024Q65.80312 170.65587 65.80312 170.32774Q65.80312 169.984 66.0375 169.76524Q66.27187 169.53087 66.6 169.53087ZM75.95937 166.65587L75.95937 167.87462Q75.95937 169.45274 75.20937 170.39024Q74.61562 171.109 73.70937 171.109Q73.27187 171.109 72.88125 170.93712Q72.50625 170.76524 72.24062 170.45274Q72.06875 170.26524 71.86562 169.84337Q71.6625 169.40587 71.58437 169.0465Q71.44375 168.5465 71.44375 167.87462L71.44375 166.65587Q71.44375 165.06212 72.19375 164.14024Q72.7875 163.40587 73.69375 163.40587Q74.13125 163.40587 74.50625 163.57774Q74.89687 163.74962 75.1625 164.06212Q75.33437 164.26524 75.5375 164.70274Q75.74062 165.12462 75.83437 165.46837Q75.95937 165.96837 75.95937 166.65587ZM75.475 166.71837Q75.475 166.01524 75.27187 165.4215Q75.06875 164.81212 74.83437 164.46837Q74.67812 164.24962 74.44375 164.109Q74.11562 163.90587 73.69375 163.90587Q72.86562 163.90587 72.39687 164.74962Q71.92812 165.59337 71.92812 166.71837L71.92812 167.7965Q71.92812 168.49962 72.13125 169.109Q72.33437 169.70274 72.58437 170.06212Q72.725 170.26524 72.95937 170.40587Q73.2875 170.62462 73.70937 170.62462Q74.5375 170.62462 75.00625 169.78087Q75.475 168.9215 75.475 167.7965L75.475 166.71837Z" fill-rule="nonzero"/><path fill="#000000" d="M58.35 148.14828L58.35 150.55453Q58.771873 150.38266 59.1625 150.28891Q59.56875 150.19516 59.928123 150.19516Q60.865623 150.19516 61.475 150.85141Q62.1 151.49203 62.1 152.55453Q62.1 153.72641 61.396873 154.46078Q60.69375 155.17953 59.646873 155.17953Q58.94375 155.17953 58.303123 154.86703Q57.85 154.64828 57.475 154.33578Q57.25625 154.13266 57.25625 154.00766Q57.25625 153.89828 57.31875 153.83578Q57.396873 153.75766 57.490623 153.75766Q57.584373 153.75766 57.69375 153.86703Q58.584373 154.69516 59.615623 154.69516Q60.490623 154.69516 61.053123 154.10141Q61.615623 153.50766 61.615623 152.53891Q61.615623 151.69516 61.115623 151.19516Q60.63125 150.69516 59.88125 150.69516Q59.115623 150.69516 58.35 151.08578Q58.1625 151.17953 58.084373 151.17953Q57.975 151.17953 57.9125 151.11703Q57.85 151.03891 57.85 150.91391L57.85 147.64828L61.2875 147.64828Q61.459373 147.64828 61.5375 147.72641Q61.615623 147.78891 61.615623 147.89828Q61.615623 148.00766 61.5375 148.08578Q61.459373 148.14828 61.2875 148.14828L58.35 148.14828ZM66.6 153.60141L66.80312 153.60141Q67.13125 153.60141 67.36562 153.83578Q67.6 154.05453 67.6 154.38266Q67.6 154.72641 67.36562 154.96078Q67.13125 155.17953 66.80312 155.17953L66.6 155.17953Q66.27187 155.17953 66.0375 154.96078Q65.80312 154.72641 65.80312 154.39828Q65.80312 154.05453 66.0375 153.83578Q66.27187 153.60141 66.6 153.60141ZM75.95937 150.72641L75.95937 151.94516Q75.95937 153.52328 75.20937 154.46078Q74.61562 155.17953 73.70937 155.17953Q73.27187 155.17953 72.88125 155.00766Q72.50625 154.83578 72.24062 154.52328Q72.06875 154.33578 71.86562 153.91391Q71.6625 153.47641 71.58437 153.11703Q71.44375 152.61703 71.44375 151.94516L71.44375 150.72641Q71.44375 149.13266 72.19375 148.21078Q72.7875 147.47641 73.69375 147.47641Q74.13125 147.47641 74.50625 147.64828Q74.89687 147.82016 75.1625 148.13266Q75.33437 148.33578 75.5375 148.77328Q75.74062 149.19516 75.83437 149.53891Q75.95937 150.03891 75.95937 150.72641ZM75.475 150.78891Q75.475 150.08578 75.27187 149.49203Q75.06875 148.88266 74.83437 148.53891Q74.67812 148.32016 74.44375 148.17953Q74.11562 147.97641 73.69375 147.97641Q72.86562 147.97641 72.39687 148.82016Q71.92812 149.66391 71.92812 150.78891L71.92812 151.86703Q71.92812 152.57016 72.13125 153.17953Q72.33437 153.77328 72.58437 154.13266Q72.725 154.33578 72.95937 154.47641Q73.2875 154.69516 73.70937 154.69516Q74.5375 154.69516 75.00625 153.85141Q75.475 152.99203 75.475 151.86703L75.475 150.78891Z" fill-rule="nonzero"/><path fill="#000000" d="M61.35 124.34741L61.35 124.12866L57.834373 124.12866L57.834373 124.56616Q57.834373 124.73804 57.75625 124.81616Q57.69375 124.89429 57.584373 124.89429Q57.475 124.89429 57.396873 124.81616Q57.334373 124.73804 57.334373 124.56616L57.334373 123.62866L61.85 123.62866L61.85 124.42554L59.88125 130.75366Q59.834373 130.89429 59.75625 130.95679Q59.69375 131.00366 59.615623 131.00366Q59.50625 131.00366 59.428123 130.94116Q59.365623 130.86304 59.365623 130.76929Q59.365623 130.70679 59.4125 130.59741L61.35 124.34741ZM66.6 129.58179L66.80312 129.58179Q67.13125 129.58179 67.36562 129.81616Q67.6 130.03491 67.6 130.36304Q67.6 130.70679 67.36562 130.94116Q67.13125 131.15991 66.80312 131.15991L66.6 131.15991Q66.27187 131.15991 66.0375 130.94116Q65.80312 130.70679 65.80312 130.37866Q65.80312 130.03491 66.0375 129.81616Q66.27187 129.58179 66.6 129.58179ZM75.95937 126.70679L75.95937 127.92554Q75.95937 129.50366 75.20937 130.44116Q74.61562 131.15991 73.70937 131.15991Q73.27187 131.15991 72.88125 130.98804Q72.50625 130.81616 72.24062 130.50366Q72.06875 130.31616 71.86562 129.89429Q71.6625 129.45679 71.58437 129.09741Q71.44375 128.59741 71.44375 127.92554L71.44375 126.70679Q71.44375 125.11304 72.19375 124.19116Q72.7875 123.45679 73.69375 123.45679Q74.13125 123.45679 74.50625 123.62866Q74.89687 123.80054 75.1625 124.11304Q75.33437 124.31616 75.5375 124.75366Q75.74062 125.17554 75.83437 125.51929Q75.95937 126.01929 75.95937 126.70679ZM75.475 126.76929Q75.475 126.06616 75.27187 125.47241Q75.06875 124.86304 74.83437 124.51929Q74.67812 124.30054 74.44375 124.15991Q74.11562 123.95679 73.69375 123.95679Q72.86562 123.95679 72.39687 124.80054Q71.92812 125.64429 71.92812 126.76929L71.92812 127.84741Q71.92812 128.55054 72.13125 129.15991Q72.33437 129.75366 72.58437 130.11304Q72.725 130.31616 72.95937 130.45679Q73.2875 130.67554 73.70937 130.67554Q74.5375 130.67554 75.00625 129.83179Q75.475 128.97241 75.475 127.84741L75.475 126.76929Z" fill-rule="nonzero"/><path fill="#000000" d="M61.725 108.891304Q61.334373 109.56318 60.803123 109.90693Q60.2875 110.235054 59.740623 110.235054Q59.225 110.235054 58.740623 109.953804Q58.271873 109.65693 57.990623 109.09443Q57.709373 108.516304 57.709373 107.90693Q57.709373 107.00068 58.271873 106.266304Q58.834373 105.516304 59.771873 105.516304Q60.44375 105.516304 60.990623 105.93818Q61.5375 106.34443 61.85 107.141304Q62.240623 108.15693 62.240623 109.50068Q62.240623 110.53193 61.896873 111.235054Q61.678123 111.703804 61.240623 112.141304Q60.81875 112.578804 60.271873 112.860054Q59.5375 113.21943 58.740623 113.21943Q58.209373 113.21943 57.88125 113.016304Q57.725 112.922554 57.725 112.78193Q57.725 112.68818 57.7875 112.62568Q57.865623 112.547554 57.975 112.547554Q58.0375 112.547554 58.178123 112.62568Q58.396873 112.735054 58.709373 112.735054Q59.94375 112.735054 60.834373 111.84443Q61.740623 110.93818 61.740623 109.578804Q61.740623 109.328804 61.725 108.891304ZM61.63125 108.06318Q61.31875 106.87568 60.85 106.453804Q60.396873 106.016304 59.7875 106.016304Q59.146873 106.016304 58.678123 106.547554Q58.209373 107.06318 58.209373 107.891304Q58.209373 108.703804 58.678123 109.235054Q59.146873 109.75068 59.75625 109.75068Q60.1 109.75068 60.428123 109.56318Q60.771873 109.37568 61.06875 109.00068Q61.25625 108.75068 61.63125 108.06318ZM66.6 111.641304L66.80312 111.641304Q67.13125 111.641304 67.36562 111.87568Q67.6 112.09443 67.6 112.422554Q67.6 112.766304 67.36562 113.00068Q67.13125 113.21943 66.80312 113.21943L66.6 113.21943Q66.27187 113.21943 66.0375 113.00068Q65.80312 112.766304 65.80312 112.43818Q65.80312 112.09443 66.0375 111.87568Q66.27187 111.641304 66.6 111.641304ZM75.95937 108.766304L75.95937 109.985054Q75.95937 111.56318 75.20937 112.50068Q74.61562 113.21943 73.70937 113.21943Q73.27187 113.21943 72.88125 113.047554Q72.50625 112.87568 72.24062 112.56318Q72.06875 112.37568 71.86562 111.953804Q71.6625 111.516304 71.58437 111.15693Q71.44375 110.65693 71.44375 109.985054L71.44375 108.766304Q71.44375 107.172554 72.19375 106.25068Q72.7875 105.516304 73.69375 105.516304Q74.13125 105.516304 74.50625 105.68818Q74.89687 105.860054 75.1625 106.172554Q75.33437 106.37568 75.5375 106.81318Q75.74062 107.235054 75.83437 107.578804Q75.95937 108.078804 75.95937 108.766304ZM75.475 108.828804Q75.475 108.12568 75.27187 107.53193Q75.06875 106.922554 74.83437 106.578804Q74.67812 106.360054 74.44375 106.21943Q74.11562 106.016304 73.69375 106.016304Q72.86562 106.016304 72.39687 106.860054Q71.92812 107.703804 71.92812 108.828804L71.92812 109.90693Q71.92812 110.610054 72.13125 111.21943Q72.33437 111.81318 72.58437 112.172554Q72.725 112.37568 72.95937 112.516304Q73.2875 112.735054 73.70937 112.735054Q74.5375 112.735054 75.00625 111.891304Q75.475 111.03193 75.475 109.90693L75.475 108.828804Z" fill-rule="nonzero"/><path fill="#000000" d="M50.584373 55.544785L54.365623 55.544785L54.365623 55.357285Q54.365623 55.18541 54.428123 55.107285Q54.50625 55.02916 54.615623 55.02916Q54.725 55.02916 54.7875 55.107285Q54.865623 55.18541 54.865623 55.357285L54.865623 56.044785L50.1 56.044785L50.1 55.31041Q51.6 53.96666 53.021873 52.576035Q53.678123 51.919785 53.928123 51.62291Q54.178123 51.31041 54.25625 51.09166Q54.35 50.857285 54.35 50.62291Q54.35 49.982285 53.834373 49.49791Q53.334373 49.013535 52.615623 49.013535Q51.975 49.013535 51.475 49.388535Q50.975 49.74791 50.834373 50.294785Q50.7875 50.43541 50.740623 50.482285Q50.678123 50.52916 50.584373 50.52916Q50.475 50.52916 50.4125 50.46666Q50.35 50.40416 50.35 50.31041Q50.35 50.02916 50.646873 49.544785Q50.959373 49.06041 51.490623 48.794785Q52.0375 48.513535 52.615623 48.513535Q53.5375 48.513535 54.19375 49.15416Q54.85 49.794785 54.85 50.607285Q54.85 50.93541 54.740623 51.232285Q54.63125 51.513535 54.365623 51.857285Q54.1 52.18541 53.4125 52.857285Q51.678123 54.576035 50.584373 55.513535L50.584373 55.544785ZM61.959373 51.763535L61.959373 52.982285Q61.959373 54.56041 61.209373 55.49791Q60.615623 56.21666 59.709373 56.21666Q59.271873 56.21666 58.88125 56.044785Q58.50625 55.87291 58.240623 55.56041Q58.06875 55.37291 57.865623 54.951035Q57.6625 54.513535 57.584373 54.15416Q57.44375 53.65416 57.44375 52.982285L57.44375 51.763535Q57.44375 50.169785 58.19375 49.24791Q58.7875 48.513535 59.69375 48.513535Q60.13125 48.513535 60.50625 48.68541Q60.896873 48.857285 61.1625 49.169785Q61.334373 49.37291 61.5375 49.81041Q61.740623 50.232285 61.834373 50.576035Q61.959373 51.076035 61.959373 51.763535ZM61.475 51.826035Q61.475 51.12291 61.271873 50.52916Q61.06875 49.919785 60.834373 49.576035Q60.678123 49.357285 60.44375 49.21666Q60.115623 49.013535 59.69375 49.013535Q58.865623 49.013535 58.396873 49.857285Q57.928123 50.701035 57.928123 51.826035L57.928123 52.90416Q57.928123 53.607285 58.13125 54.21666Q58.334373 54.81041 58.584373 55.169785Q58.725 55.37291 58.959373 55.513535Q59.2875 55.732285 59.709373 55.732285Q60.5375 55.732285 61.00625 54.888535Q61.475 54.02916 61.475 52.90416L61.475 51.826035ZM66.6 54.638535L66.80312 54.638535Q67.13125 54.638535 67.36562 54.87291Q67.6 55.09166 67.6 55.419785Q67.6 55.763535 67.36562 55.99791Q67.13125 56.21666 66.80312 56.21666L66.6 56.21666Q66.27187 56.21666 66.0375 55.99791Q65.80312 55.763535 65.80312 55.43541Q65.80312 55.09166 66.0375 54.87291Q66.27187 54.638535 66.6 54.638535ZM75.95937 51.763535L75.95937 52.982285Q75.95937 54.56041 75.20937 55.49791Q74.61562 56.21666 73.70937 56.21666Q73.27187 56.21666 72.88125 56.044785Q72.50625 55.87291 72.24062 55.56041Q72.06875 55.37291 71.86562 54.951035Q71.6625 54.513535 71.58437 54.15416Q71.44375 53.65416 71.44375 52.982285L71.44375 51.763535Q71.44375 50.169785 72.19375 49.24791Q72.7875 48.513535 73.69375 48.513535Q74.13125 48.513535 74.50625 48.68541Q74.89687 48.857285 75.1625 49.169785Q75.33437 49.37291 75.5375 49.81041Q75.74062 50.232285 75.83437 50.576035Q75.95937 51.076035 75.95937 51.763535ZM75.475 51.826035Q75.475 51.12291 75.27187 50.52916Q75.06875 49.919785 74.83437 49.576035Q74.67812 49.357285 74.44375 49.21666Q74.11562 49.013535 73.69375 49.013535Q72.86562 49.013535 72.39687 49.857285Q71.92812 50.701035 71.92812 51.826035L71.92812 52.90416Q71.92812 53.607285 72.13125 54.21666Q72.33437 54.81041 72.58437 55.169785Q72.725 55.37291 72.95937 55.513535Q73.2875 55.732285 73.70937 55.732285Q74.5375 55.732285 75.00625 54.888535Q75.475 54.02916 75.475 52.90416L75.475 51.826035Z" fill-rule="nonzero"/><path fill="#000000" d="M53.709373 23.1Q54.396873 23.396875 54.740623 23.928125Q55.1 24.459375 55.1 25.0375Q55.1 25.928125 54.38125 26.6Q53.678123 27.271875 52.6 27.271875Q51.959373 27.271875 51.271873 27.00625Q50.6 26.740625 50.334373 26.459375Q50.240623 26.365625 50.240623 26.25625Q50.240623 26.1625 50.303123 26.1Q50.38125 26.021875 50.475 26.021875Q50.56875 26.021875 50.678123 26.115625Q51.584373 26.7875 52.6 26.7875Q53.459373 26.7875 54.0375 26.25625Q54.615623 25.709375 54.615623 25.053125Q54.615623 24.615625 54.334373 24.19375Q54.053123 23.771875 53.50625 23.5375Q52.975 23.2875 52.428123 23.2875Q52.25625 23.2875 52.178123 23.225Q52.1 23.146875 52.1 23.0375Q52.1 22.928125 52.178123 22.865625Q52.25625 22.7875 52.396873 22.7875L52.81875 22.803125Q53.490623 22.803125 53.9125 22.396875Q54.35 21.990625 54.35 21.459375Q54.35 20.9125 53.896873 20.490625Q53.44375 20.06875 52.709373 20.06875Q52.209373 20.06875 51.771873 20.240625Q51.35 20.4125 51.1 20.725Q51.00625 20.834375 50.94375 20.865625Q50.896873 20.88125 50.834373 20.88125Q50.740623 20.88125 50.6625 20.81875Q50.6 20.75625 50.6 20.6625Q50.6 20.428125 51.1 20.06875Q51.81875 19.56875 52.709373 19.56875Q53.646873 19.56875 54.240623 20.13125Q54.85 20.69375 54.85 21.459375Q54.85 21.959375 54.553123 22.396875Q54.271873 22.834375 53.709373 23.1ZM61.959373 22.81875L61.959373 24.0375Q61.959373 25.615625 61.209373 26.553125Q60.615623 27.271875 59.709373 27.271875Q59.271873 27.271875 58.88125 27.1Q58.50625 26.928125 58.240623 26.615625Q58.06875 26.428125 57.865623 26.00625Q57.6625 25.56875 57.584373 25.209375Q57.44375 24.709375 57.44375 24.0375L57.44375 22.81875Q57.44375 21.225 58.19375 20.303125Q58.7875 19.56875 59.69375 19.56875Q60.13125 19.56875 60.50625 19.740625Q60.896873 19.9125 61.1625 20.225Q61.334373 20.428125 61.5375 20.865625Q61.740623 21.2875 61.834373 21.63125Q61.959373 22.13125 61.959373 22.81875ZM61.475 22.88125Q61.475 22.178125 61.271873 21.584375Q61.06875 20.975 60.834373 20.63125Q60.678123 20.4125 60.44375 20.271875Q60.115623 20.06875 59.69375 20.06875Q58.865623 20.06875 58.396873 20.9125Q57.928123 21.75625 57.928123 22.88125L57.928123 23.959375Q57.928123 24.6625 58.13125 25.271875Q58.334373 25.865625 58.584373 26.225Q58.725 26.428125 58.959373 26.56875Q59.2875 26.7875 59.709373 26.7875Q60.5375 26.7875 61.00625 25.94375Q61.475 25.084375 61.475 23.959375L61.475 22.88125ZM66.6 25.69375L66.80312 25.69375Q67.13125 25.69375 67.36562 25.928125Q67.6 26.146875 67.6 26.475Q67.6 26.81875 67.36562 27.053125Q67.13125 27.271875 66.80312 27.271875L66.6 27.271875Q66.27187 27.271875 66.0375 27.053125Q65.80312 26.81875 65.80312 26.490625Q65.80312 26.146875 66.0375 25.928125Q66.27187 25.69375 66.6 25.69375ZM75.95937 22.81875L75.95937 24.0375Q75.95937 25.615625 75.20937 26.553125Q74.61562 27.271875 73.70937 27.271875Q73.27187 27.271875 72.88125 27.1Q72.50625 26.928125 72.24062 26.615625Q72.06875 26.428125 71.86562 26.00625Q71.6625 25.56875 71.58437 25.209375Q71.44375 24.709375 71.44375 24.0375L71.44375 22.81875Q71.44375 21.225 72.19375 20.303125Q72.7875 19.56875 73.69375 19.56875Q74.13125 19.56875 74.50625 19.740625Q74.89687 19.9125 75.1625 20.225Q75.33437 20.428125 75.5375 20.865625Q75.74062 21.2875 75.83437 21.63125Q75.95937 22.13125 75.95937 22.81875ZM75.475 22.88125Q75.475 22.178125 75.27187 21.584375Q75.06875 20.975 74.83437 20.63125Q74.67812 20.4125 74.44375 20.271875Q74.11562 20.06875 73.69375 20.06875Q72.86562 20.06875 72.39687 20.9125Q71.92812 21.75625 71.92812 22.88125L71.92812 23.959375Q71.92812 24.6625 72.13125 25.271875Q72.33437 25.865625 72.58437 26.225Q72.725 26.428125 72.95937 26.56875Q73.2875 26.7875 73.70937 26.7875Q74.5375 26.7875 75.00625 25.94375Q75.475 25.084375 75.475 23.959375L75.475 22.88125Z" fill-rule="nonzero"/><path fill="#000000" d="M171.01912 283.82187L173.691 283.82187Q173.86287 283.82187 173.941 283.9Q174.01912 283.9625 174.01912 284.07187Q174.01912 284.18124 173.941 284.25937Q173.86287 284.32187 173.691 284.32187L171.01912 284.32187L171.01912 287.60312Q171.01912 288.025 171.36287 288.32187Q171.70662 288.60312 172.36287 288.60312Q172.86287 288.60312 173.441 288.4625Q174.01912 288.30624 174.34724 288.11874Q174.45662 288.04062 174.53474 288.04062Q174.6285 288.04062 174.691 288.11874Q174.76912 288.18124 174.76912 288.29062Q174.76912 288.36874 174.691 288.44687Q174.5035 288.63437 173.78474 288.86874Q173.066 289.0875 172.39412 289.0875Q171.53474 289.0875 171.01912 288.69687Q170.51912 288.29062 170.51912 287.60312L170.51912 284.32187L169.61287 284.32187Q169.441 284.32187 169.36287 284.25937Q169.28474 284.18124 169.28474 284.07187Q169.28474 283.9625 169.36287 283.9Q169.441 283.82187 169.61287 283.82187L170.51912 283.82187L170.51912 282.36874Q170.51912 282.19687 170.58162 282.11874Q170.65974 282.04062 170.76912 282.04062Q170.8785 282.04062 170.941 282.11874Q171.01912 282.19687 171.01912 282.36874L171.01912 283.82187ZM180.65974 284.15Q180.65974 283.97812 180.72224 283.9Q180.80037 283.82187 180.89412 283.82187Q181.0035 283.82187 181.066 283.9Q181.14412 283.97812 181.14412 284.16562L181.14412 285.00937Q181.14412 285.18124 181.066 285.25937Q181.0035 285.3375 180.89412 285.3375Q180.80037 285.3375 180.72224 285.275Q180.65974 285.19687 180.65974 285.05624Q180.61287 284.69687 180.28474 284.47812Q179.816 284.15 179.01912 284.15Q178.191 284.15 177.73787 284.47812Q177.39412 284.72812 177.39412 285.04062Q177.39412 285.4 177.80037 285.63437Q178.08162 285.79062 178.86287 285.88437Q179.89412 285.99374 180.28474 286.13437Q180.86287 286.3375 181.1285 286.7125Q181.40974 287.07187 181.40974 287.49374Q181.40974 288.11874 180.80037 288.60312Q180.20662 289.0875 179.03474 289.0875Q177.8785 289.0875 177.1285 288.49374Q177.1285 288.69687 177.09724 288.75937Q177.08162 288.82187 177.01912 288.86874Q176.95662 288.9 176.8785 288.9Q176.78474 288.9 176.70662 288.82187Q176.64412 288.74374 176.64412 288.57187L176.64412 287.55624Q176.64412 287.38437 176.70662 287.30624Q176.76912 287.22812 176.8785 287.22812Q176.98787 287.22812 177.066 287.30624Q177.14412 287.36874 177.14412 287.49374Q177.14412 287.775 177.26912 287.94687Q177.47224 288.22812 177.92537 288.41562Q178.3785 288.60312 179.01912 288.60312Q179.98787 288.60312 180.45662 288.24374Q180.92537 287.88437 180.92537 287.49374Q180.92537 287.025 180.441 286.75937Q179.97224 286.47812 179.05037 286.38437Q178.1285 286.29062 177.72224 286.15Q177.33162 285.99374 177.11287 285.69687Q176.89412 285.38437 176.89412 285.025Q176.89412 284.4 177.5035 284.025Q178.1285 283.65 178.98787 283.65Q180.01912 283.65 180.65974 284.15ZM188.08162 284.32187L188.08162 284.16562Q188.08162 283.97812 188.14412 283.9Q188.22224 283.82187 188.33162 283.82187Q188.441 283.82187 188.5035 283.9Q188.58162 283.97812 188.58162 284.16562L188.58162 285.275Q188.566 285.44687 188.5035 285.525Q188.441 285.60312 188.33162 285.60312Q188.22224 285.60312 188.15974 285.54062Q188.09724 285.47812 188.08162 285.30624Q188.05037 284.9 187.53474 284.525Q187.01912 284.15 186.15974 284.15Q185.05037 284.15 184.48787 284.8375Q183.92537 285.525 183.92537 286.4Q183.92537 287.35312 184.55037 287.97812Q185.17537 288.60312 186.17537 288.60312Q186.73787 288.60312 187.33162 288.4Q187.941 288.18124 188.40974 287.7125Q188.53474 287.5875 188.6285 287.5875Q188.73787 287.5875 188.80037 287.66562Q188.86287 287.72812 188.86287 287.82187Q188.86287 288.07187 188.26912 288.4625Q187.316 289.0875 186.14412 289.0875Q184.95662 289.0875 184.191 288.3375Q183.42537 287.57187 183.42537 286.41562Q183.42537 285.2125 184.20662 284.43124Q184.98787 283.65 186.17537 283.65Q187.316 283.65 188.08162 284.32187Z" fill-rule="nonzero"/><path fill="#000000" d="M306.73438 284.15Q306.73438 283.97812 306.79688 283.9Q306.875 283.82187 306.96875 283.82187Q307.07812 283.82187 307.14062 283.9Q307.21875 283.97812 307.21875 284.16562L307.21875 285.00937Q307.21875 285.18124 307.14062 285.25937Q307.07812 285.3375 306.96875 285.3375Q306.875 285.3375 306.79688 285.275Q306.73438 285.19687 306.73438 285.05624Q306.6875 284.69687 306.35938 284.47812Q305.89062 284.15 305.09375 284.15Q304.26562 284.15 303.8125 284.47812Q303.46875 284.72812 303.46875 285.04062Q303.46875 285.4 303.875 285.63437Q304.15625 285.79062 304.9375 285.88437Q305.96875 285.99374 306.35938 286.13437Q306.9375 286.3375 307.20312 286.7125Q307.48438 287.07187 307.48438 287.49374Q307.48438 288.11874 306.875 288.60312Q306.28125 289.0875 305.10938 289.0875Q303.95312 289.0875 303.20312 288.49374Q303.20312 288.69687 303.17188 288.75937Q303.15625 288.82187 303.09375 288.86874Q303.03125 288.9 302.95312 288.9Q302.85938 288.9 302.78125 288.82187Q302.71875 288.74374 302.71875 288.57187L302.71875 287.55624Q302.71875 287.38437 302.78125 287.30624Q302.84375 287.22812 302.95312 287.22812Q303.0625 287.22812 303.14062 287.30624Q303.21875 287.36874 303.21875 287.49374Q303.21875 287.775 303.34375 287.94687Q303.54688 288.22812 304.0 288.41562Q304.45312 288.60312 305.09375 288.60312Q306.0625 288.60312 306.53125 288.24374Q307.0 287.88437 307.0 287.49374Q307.0 287.025 306.51562 286.75937Q306.04688 286.47812 305.125 286.38437Q304.20312 286.29062 303.79688 286.15Q303.40625 285.99374 303.1875 285.69687Q302.96875 285.38437 302.96875 285.025Q302.96875 284.4 303.57812 284.025Q304.20312 283.65 305.0625 283.65Q306.09375 283.65 306.73438 284.15ZM313.79688 288.9L313.1875 288.9L312.10938 285.74374L311.03125 288.9L310.42188 288.9L309.39062 284.32187L309.15625 284.32187Q308.98438 284.32187 308.90625 284.25937Q308.82812 284.18124 308.82812 284.07187Q308.82812 283.9625 308.90625 283.9Q308.98438 283.82187 309.15625 283.82187L310.51562 283.82187Q310.6875 283.82187 310.76562 283.9Q310.84375 283.9625 310.84375 284.07187Q310.84375 284.18124 310.76562 284.25937Q310.6875 284.32187 310.51562 284.32187L309.89062 284.32187L310.75 288.22812L311.8125 285.10312L312.39062 285.10312L313.46875 288.22812L314.3125 284.32187L313.6875 284.32187Q313.51562 284.32187 313.4375 284.25937Q313.35938 284.18124 313.35938 284.07187Q313.35938 283.9625 313.42188 283.9Q313.5 283.82187 313.6875 283.82187L315.03125 283.82187Q315.21875 283.82187 315.29688 283.9Q315.375 283.9625 315.375 284.07187Q315.375 284.18124 315.29688 284.25937Q315.21875 284.32187 315.03125 284.32187L314.79688 284.32187L313.79688 288.9ZM321.15625 284.32187L321.15625 284.16562Q321.15625 283.97812 321.21875 283.9Q321.29688 283.82187 321.40625 283.82187Q321.51562 283.82187 321.57812 283.9Q321.65625 283.97812 321.65625 284.16562L321.65625 285.275Q321.64062 285.44687 321.57812 285.525Q321.51562 285.60312 321.40625 285.60312Q321.29688 285.60312 321.23438 285.54062Q321.17188 285.47812 321.15625 285.30624Q321.125 284.9 320.60938 284.525Q320.09375 284.15 319.23438 284.15Q318.125 284.15 317.5625 284.8375Q317.0 285.525 317.0 286.4Q317.0 287.35312 317.625 287.97812Q318.25 288.60312 319.25 288.60312Q319.8125 288.60312 320.40625 288.4Q321.01562 288.18124 321.48438 287.7125Q321.60938 287.5875 321.70312 287.5875Q321.8125 287.5875 321.875 287.66562Q321.9375 287.72812 321.9375 287.82187Q321.9375 288.07187 321.34375 288.4625Q320.39062 289.0875 319.21875 289.0875Q318.03125 289.0875 317.26562 288.3375Q316.5 287.57187 316.5 286.41562Q316.5 285.2125 317.28125 284.43124Q318.0625 283.65 319.25 283.65Q320.39062 283.65 321.15625 284.32187Z" fill-rule="nonzero"/><path fill="#000000" d="M388.16837 283.82187L390.84024 283.82187Q391.01212 283.82187 391.09024 283.9Q391.16837 283.9625 391.16837 284.07187Q391.16837 284.18124 391.09024 284.25937Q391.01212 284.32187 390.84024 284.32187L388.16837 284.32187L388.16837 287.60312Q388.16837 288.025 388.51212 288.32187Q388.85587 288.60312 389.51212 288.60312Q390.01212 288.60312 390.59024 288.4625Q391.16837 288.30624 391.4965 288.11874Q391.60587 288.04062 391.684 288.04062Q391.77774 288.04062 391.84024 288.11874Q391.91837 288.18124 391.91837 288.29062Q391.91837 288.36874 391.84024 288.44687Q391.65274 288.63437 390.934 288.86874Q390.21524 289.0875 389.54337 289.0875Q388.684 289.0875 388.16837 288.69687Q387.66837 288.29062 387.66837 287.60312L387.66837 284.32187L386.76212 284.32187Q386.59024 284.32187 386.51212 284.25937Q386.434 284.18124 386.434 284.07187Q386.434 283.9625 386.51212 283.9Q386.59024 283.82187 386.76212 283.82187L387.66837 283.82187L387.66837 282.36874Q387.66837 282.19687 387.73087 282.11874Q387.809 282.04062 387.91837 282.04062Q388.02774 282.04062 388.09024 282.11874Q388.16837 282.19687 388.16837 282.36874L388.16837 283.82187ZM397.809 284.15Q397.809 283.97812 397.8715 283.9Q397.94962 283.82187 398.04337 283.82187Q398.15274 283.82187 398.21524 283.9Q398.29337 283.97812 398.29337 284.16562L398.29337 285.00937Q398.29337 285.18124 398.21524 285.25937Q398.15274 285.3375 398.04337 285.3375Q397.94962 285.3375 397.8715 285.275Q397.809 285.19687 397.809 285.05624Q397.76212 284.69687 397.434 284.47812Q396.96524 284.15 396.16837 284.15Q395.34024 284.15 394.88712 284.47812Q394.54337 284.72812 394.54337 285.04062Q394.54337 285.4 394.94962 285.63437Q395.23087 285.79062 396.01212 285.88437Q397.04337 285.99374 397.434 286.13437Q398.01212 286.3375 398.27774 286.7125Q398.559 287.07187 398.559 287.49374Q398.559 288.11874 397.94962 288.60312Q397.35587 289.0875 396.184 289.0875Q395.02774 289.0875 394.27774 288.49374Q394.27774 288.69687 394.2465 288.75937Q394.23087 288.82187 394.16837 288.86874Q394.10587 288.9 394.02774 288.9Q393.934 288.9 393.85587 288.82187Q393.79337 288.74374 393.79337 288.57187L393.79337 287.55624Q393.79337 287.38437 393.85587 287.30624Q393.91837 287.22812 394.02774 287.22812Q394.13712 287.22812 394.21524 287.30624Q394.29337 287.36874 394.29337 287.49374Q394.29337 287.775 394.41837 287.94687Q394.6215 288.22812 395.07462 288.41562Q395.52774 288.60312 396.16837 288.60312Q397.13712 288.60312 397.60587 288.24374Q398.07462 287.88437 398.07462 287.49374Q398.07462 287.025 397.59024 286.75937Q397.1215 286.47812 396.19962 286.38437Q395.27774 286.29062 394.8715 286.15Q394.48087 285.99374 394.26212 285.69687Q394.04337 285.38437 394.04337 285.025Q394.04337 284.4 394.65274 284.025Q395.27774 283.65 396.13712 283.65Q397.16837 283.65 397.809 284.15ZM405.23087 284.32187L405.23087 284.16562Q405.23087 283.97812 405.29337 283.9Q405.3715 283.82187 405.48087 283.82187Q405.59024 283.82187 405.65274 283.9Q405.73087 283.97812 405.73087 284.16562L405.73087 285.275Q405.71524 285.44687 405.65274 285.525Q405.59024 285.60312 405.48087 285.60312Q405.3715 285.60312 405.309 285.54062Q405.2465 285.47812 405.23087 285.30624Q405.19962 284.9 404.684 284.525Q404.16837 284.15 403.309 284.15Q402.19962 284.15 401.63712 284.8375Q401.07462 285.525 401.07462 286.4Q401.07462 287.35312 401.69962 287.97812Q402.32462 288.60312 403.32462 288.60312Q403.88712 288.60312 404.48087 288.4Q405.09024 288.18124 405.559 287.7125Q405.684 287.5875 405.77774 287.5875Q405.88712 287.5875 405.94962 287.66562Q406.01212 287.72812 406.01212 287.82187Q406.01212 288.07187 405.41837 288.4625Q404.46524 289.0875 403.29337 289.0875Q402.10587 289.0875 401.34024 288.3375Q400.57462 287.57187 400.57462 286.41562Q400.57462 285.2125 401.35587 284.43124Q402.13712 283.65 403.32462 283.65Q404.46524 283.65 405.23087 284.32187ZM419.684 285.15L419.684 285.85312L414.66837 285.85312L414.66837 285.15L419.684 285.15ZM426.684 285.15L426.684 285.85312L421.66837 285.85312L421.66837 285.15L426.684 285.15ZM431.41837 281.30624L431.41837 282.57187L430.69962 282.57187L430.69962 281.30624L431.41837 281.30624ZM431.434 283.82187L431.434 288.4L433.3715 288.4Q433.559 288.4 433.6215 288.47812Q433.69962 288.54062 433.69962 288.65Q433.69962 288.75937 433.6215 288.8375Q433.559 288.9 433.3715 288.9L429.01212 288.9Q428.84024 288.9 428.76212 288.8375Q428.684 288.75937 428.684 288.65Q428.684 288.54062 428.76212 288.47812Q428.84024 288.4 429.01212 288.4L430.94962 288.4L430.94962 284.32187L429.51212 284.32187Q429.34024 284.32187 429.2465 284.25937Q429.16837 284.18124 429.16837 284.07187Q429.16837 283.9625 429.2465 283.9Q429.32462 283.82187 429.51212 283.82187L431.434 283.82187ZM436.59024 283.82187L436.59024 284.57187Q437.10587 284.04062 437.51212 283.85312Q437.934 283.65 438.44962 283.65Q439.01212 283.65 439.48087 283.88437Q439.809 284.07187 440.07462 284.47812Q440.34024 284.88437 440.34024 285.30624L440.34024 288.4L440.76212 288.4Q440.934 288.4 441.01212 288.47812Q441.09024 288.54062 441.09024 288.65Q441.09024 288.75937 441.01212 288.8375Q440.934 288.9 440.76212 288.9L439.434 288.9Q439.26212 288.9 439.184 288.8375Q439.10587 288.75937 439.10587 288.65Q439.10587 288.54062 439.184 288.47812Q439.26212 288.4 439.434 288.4L439.85587 288.4L439.85587 285.38437Q439.85587 284.86874 439.46524 284.50937Q439.09024 284.15 438.44962 284.15Q437.96524 284.15 437.60587 284.35312Q437.2465 284.54062 436.59024 285.32187L436.59024 288.4L437.13712 288.4Q437.32462 288.4 437.38712 288.47812Q437.46524 288.54062 437.46524 288.65Q437.46524 288.75937 437.38712 288.8375Q437.32462 288.9 437.13712 288.9L435.54337 288.9Q435.35587 288.9 435.27774 288.8375Q435.21524 288.75937 435.21524 288.65Q435.21524 288.54062 435.27774 288.47812Q435.35587 288.4 435.54337 288.4L436.09024 288.4L436.09024 284.32187L435.684 284.32187Q435.4965 284.32187 435.41837 284.25937Q435.35587 284.18124 435.35587 284.07187Q435.35587 283.9625 435.41837 283.9Q435.4965 283.82187 435.684 283.82187L436.59024 283.82187ZM447.23087 284.32187L447.23087 284.16562Q447.23087 283.97812 447.29337 283.9Q447.3715 283.82187 447.48087 283.82187Q447.59024 283.82187 447.65274 283.9Q447.73087 283.97812 447.73087 284.16562L447.73087 285.275Q447.71524 285.44687 447.65274 285.525Q447.59024 285.60312 447.48087 285.60312Q447.3715 285.60312 447.309 285.54062Q447.2465 285.47812 447.23087 285.30624Q447.19962 284.9 446.684 284.525Q446.16837 284.15 445.309 284.15Q444.19962 284.15 443.63712 284.8375Q443.07462 285.525 443.07462 286.4Q443.07462 287.35312 443.69962 287.97812Q444.32462 288.60312 445.32462 288.60312Q445.88712 288.60312 446.48087 288.4Q447.09024 288.18124 447.559 287.7125Q447.684 287.5875 447.77774 287.5875Q447.88712 287.5875 447.94962 287.66562Q448.01212 287.72812 448.01212 287.82187Q448.01212 288.07187 447.41837 288.4625Q446.46524 289.0875 445.29337 289.0875Q444.10587 289.0875 443.34024 288.3375Q442.57462 287.57187 442.57462 286.41562Q442.57462 285.2125 443.35587 284.43124Q444.13712 283.65 445.32462 283.65Q446.46524 283.65 447.23087 284.32187ZM451.59024 283.82187L451.59024 285.07187Q452.54337 284.19687 453.01212 283.94687Q453.4965 283.69687 453.90274 283.69687Q454.34024 283.69687 454.71524 283.99374Q455.10587 284.29062 455.10587 284.44687Q455.10587 284.55624 455.02774 284.63437Q454.94962 284.69687 454.84024 284.69687Q454.79337 284.69687 454.7465 284.68124Q454.69962 284.66562 454.59024 284.55624Q454.38712 284.35312 454.23087 284.275Q454.09024 284.19687 453.934 284.19687Q453.6215 284.19687 453.15274 284.4625Q452.69962 284.7125 451.59024 285.7125L451.59024 288.4L453.76212 288.4Q453.94962 288.4 454.02774 288.47812Q454.10587 288.54062 454.10587 288.65Q454.10587 288.75937 454.02774 288.8375Q453.94962 288.9 453.76212 288.9L449.90274 288.9Q449.73087 288.9 449.65274 288.8375Q449.57462 288.75937 449.57462 288.66562Q449.57462 288.55624 449.65274 288.49374Q449.73087 288.43124 449.90274 288.43124L451.09024 288.43124L451.09024 284.32187L450.184 284.32187Q450.01212 284.32187 449.934 284.25937Q449.85587 284.18124 449.85587 284.07187Q449.85587 283.9625 449.934 283.9Q450.01212 283.82187 450.184 283.82187L451.59024 283.82187ZM461.84024 286.47812L456.82462 286.47812Q456.94962 287.43124 457.6215 288.025Q458.29337 288.60312 459.27774 288.60312Q459.84024 288.60312 460.434 288.43124Q461.04337 288.24374 461.41837 287.93124Q461.52774 287.85312 461.6215 287.85312Q461.71524 287.85312 461.77774 287.93124Q461.85587 287.99374 461.85587 288.10312Q461.85587 288.19687 461.76212 288.29062Q461.48087 288.5875 460.76212 288.8375Q460.04337 289.0875 459.27774 289.0875Q458.01212 289.0875 457.16837 288.25937Q456.32462 287.43124 456.32462 286.25937Q456.32462 285.18124 457.1215 284.41562Q457.91837 283.65 459.09024 283.65Q460.29337 283.65 461.07462 284.44687Q461.85587 285.22812 461.84024 286.47812ZM461.34024 285.97812Q461.19962 285.16562 460.57462 284.66562Q459.94962 284.15 459.09024 284.15Q458.23087 284.15 457.60587 284.65Q456.98087 285.15 456.82462 285.97812L461.34024 285.97812ZM463.934 283.82187L463.934 284.32187Q464.559 283.65 465.19962 283.65Q465.57462 283.65 465.85587 283.85312Q466.15274 284.05624 466.34024 284.4625Q466.66837 284.05624 466.9965 283.85312Q467.34024 283.65 467.684 283.65Q468.21524 283.65 468.52774 283.99374Q468.94962 284.44687 468.94962 284.9625L468.94962 288.4L469.3715 288.4Q469.54337 288.4 469.6215 288.47812Q469.69962 288.54062 469.69962 288.65Q469.69962 288.75937 469.6215 288.8375Q469.54337 288.9 469.3715 288.9L468.46524 288.9L468.46524 285.00937Q468.46524 284.63437 468.23087 284.4Q467.9965 284.15 467.69962 284.15Q467.434 284.15 467.13712 284.35312Q466.84024 284.55624 466.44962 285.15L466.44962 288.4L466.8715 288.4Q467.04337 288.4 467.1215 288.47812Q467.19962 288.54062 467.19962 288.65Q467.19962 288.75937 467.1215 288.8375Q467.04337 288.9 466.8715 288.9L465.94962 288.9L465.94962 285.05624Q465.94962 284.65 465.71524 284.4Q465.4965 284.15 465.19962 284.15Q464.94962 284.15 464.684 284.32187Q464.32462 284.55624 463.934 285.15L463.934 288.4L464.35587 288.4Q464.52774 288.4 464.60587 288.47812Q464.684 288.54062 464.684 288.65Q464.684 288.75937 464.60587 288.8375Q464.52774 288.9 464.35587 288.9L463.02774 288.9Q462.85587 288.9 462.77774 288.8375Q462.69962 288.75937 462.69962 288.65Q462.69962 288.54062 462.77774 288.47812Q462.85587 288.4 463.02774 288.4L463.44962 288.4L463.44962 284.32187L463.02774 284.32187Q462.85587 284.32187 462.77774 284.25937Q462.69962 284.18124 462.69962 284.07187Q462.69962 283.9625 462.77774 283.9Q462.85587 283.82187 463.02774 283.82187L463.934 283.82187ZM475.84024 286.47812L470.82462 286.47812Q470.94962 287.43124 471.6215 288.025Q472.29337 288.60312 473.27774 288.60312Q473.84024 288.60312 474.434 288.43124Q475.04337 288.24374 475.41837 287.93124Q475.52774 287.85312 475.6215 287.85312Q475.71524 287.85312 475.77774 287.93124Q475.85587 287.99374 475.85587 288.10312Q475.85587 288.19687 475.76212 288.29062Q475.48087 288.5875 474.76212 288.8375Q474.04337 289.0875 473.27774 289.0875Q472.01212 289.0875 471.16837 288.25937Q470.32462 287.43124 470.32462 286.25937Q470.32462 285.18124 471.1215 284.41562Q471.91837 283.65 473.09024 283.65Q474.29337 283.65 475.07462 284.44687Q475.85587 285.22812 475.84024 286.47812ZM475.34024 285.97812Q475.19962 285.16562 474.57462 284.66562Q473.94962 284.15 473.09024 284.15Q472.23087 284.15 471.60587 284.65Q470.98087 285.15 470.82462 285.97812L475.34024 285.97812ZM478.59024 283.82187L478.59024 284.57187Q479.10587 284.04062 479.51212 283.85312Q479.934 283.65 480.44962 283.65Q481.01212 283.65 481.48087 283.88437Q481.809 284.07187 482.07462 284.47812Q482.34024 284.88437 482.34024 285.30624L482.34024 288.4L482.76212 288.4Q482.934 288.4 483.01212 288.47812Q483.09024 288.54062 483.09024 288.65Q483.09024 288.75937 483.01212 288.8375Q482.934 288.9 482.76212 288.9L481.434 288.9Q481.26212 288.9 481.184 288.8375Q481.10587 288.75937 481.10587 288.65Q481.10587 288.54062 481.184 288.47812Q481.26212 288.4 481.434 288.4L481.85587 288.4L481.85587 285.38437Q481.85587 284.86874 481.46524 284.50937Q481.09024 284.15 480.44962 284.15Q479.96524 284.15 479.60587 284.35312Q479.2465 284.54062 478.59024 285.32187L478.59024 288.4L479.13712 288.4Q479.32462 288.4 479.38712 288.47812Q479.46524 288.54062 479.46524 288.65Q479.46524 288.75937 479.38712 288.8375Q479.32462 288.9 479.13712 288.9L477.54337 288.9Q477.35587 288.9 477.27774 288.8375Q477.21524 288.75937 477.21524 288.65Q477.21524 288.54062 477.27774 288.47812Q477.35587 288.4 477.54337 288.4L478.09024 288.4L478.09024 284.32187L477.684 284.32187Q477.4965 284.32187 477.41837 284.25937Q477.35587 284.18124 477.35587 284.07187Q477.35587 283.9625 477.41837 283.9Q477.4965 283.82187 477.684 283.82187L478.59024 283.82187ZM486.16837 283.82187L488.84024 283.82187Q489.01212 283.82187 489.09024 283.9Q489.16837 283.9625 489.16837 284.07187Q489.16837 284.18124 489.09024 284.25937Q489.01212 284.32187 488.84024 284.32187L486.16837 284.32187L486.16837 287.60312Q486.16837 288.025 486.51212 288.32187Q486.85587 288.60312 487.51212 288.60312Q488.01212 288.60312 488.59024 288.4625Q489.16837 288.30624 489.4965 288.11874Q489.60587 288.04062 489.684 288.04062Q489.77774 288.04062 489.84024 288.11874Q489.91837 288.18124 489.91837 288.29062Q489.91837 288.36874 489.84024 288.44687Q489.65274 288.63437 488.934 288.86874Q488.21524 289.0875 487.54337 289.0875Q486.684 289.0875 486.16837 288.69687Q485.66837 288.29062 485.66837 287.60312L485.66837 284.32187L484.76212 284.32187Q484.59024 284.32187 484.51212 284.25937Q484.434 284.18124 484.434 284.07187Q484.434 283.9625 484.51212 283.9Q484.59024 283.82187 484.76212 283.82187L485.66837 283.82187L485.66837 282.36874Q485.66837 282.19687 485.73087 282.11874Q485.809 282.04062 485.91837 282.04062Q486.02774 282.04062 486.09024 282.11874Q486.16837 282.19687 486.16837 282.36874L486.16837 283.82187ZM495.59024 288.9L495.59024 288.19687Q494.51212 289.0875 493.29337 289.0875Q492.41837 289.0875 491.91837 288.65Q491.41837 288.19687 491.41837 287.54062Q491.41837 286.8375 492.07462 286.30624Q492.73087 285.75937 493.9965 285.75937Q494.32462 285.75937 494.71524 285.80624Q495.1215 285.85312 495.59024 285.94687L495.59024 285.15Q495.59024 284.74374 495.21524 284.44687Q494.84024 284.15 494.09024 284.15Q493.51212 284.15 492.48087 284.47812Q492.29337 284.54062 492.2465 284.54062Q492.15274 284.54062 492.07462 284.47812Q492.01212 284.4 492.01212 284.29062Q492.01212 284.19687 492.07462 284.13437Q492.15274 284.04062 492.73087 283.9Q493.65274 283.65 494.1215 283.65Q495.04337 283.65 495.559 284.11874Q496.09024 284.57187 496.09024 285.15L496.09024 288.4L496.7465 288.4Q496.934 288.4 496.9965 288.47812Q497.07462 288.54062 497.07462 288.65Q497.07462 288.75937 496.9965 288.8375Q496.934 288.9 496.7465 288.9L495.59024 288.9ZM495.59024 286.44687Q495.2465 286.35312 494.85587 286.30624Q494.46524 286.25937 494.04337 286.25937Q492.96524 286.25937 492.3715 286.7125Q491.91837 287.07187 491.91837 287.54062Q491.91837 287.99374 492.26212 288.30624Q492.60587 288.60312 493.27774 288.60312Q493.91837 288.60312 494.46524 288.35312Q495.01212 288.0875 495.59024 287.54062L495.59024 286.44687ZM501.41837 281.54062L501.41837 288.4L503.35587 288.4Q503.54337 288.4 503.6215 288.47812Q503.69962 288.54062 503.69962 288.65Q503.69962 288.75937 503.6215 288.8375Q503.54337 288.9 503.35587 288.9L498.9965 288.9Q498.82462 288.9 498.7465 288.8375Q498.66837 288.75937 498.66837 288.65Q498.66837 288.54062 498.7465 288.47812Q498.82462 288.4 498.9965 288.4L500.934 288.4L500.934 282.04062L499.51212 282.04062Q499.34024 282.04062 499.26212 281.97812Q499.184 281.9 499.184 281.79062Q499.184 281.68124 499.26212 281.61874Q499.34024 281.54062 499.51212 281.54062L501.41837 281.54062Z" fill-rule="nonzero"/></svg>